<?xml version="1.0" standalone="no"?>
<!DOCTYPE svg PUBLIC "-//W3C//DTD SVG 20010904//EN"
 "http://www.w3.org/TR/2001/REC-SVG-20010904/DTD/svg10.dtd">
<svg version="1.0" xmlns="http://www.w3.org/2000/svg"
 width="648.000000pt" height="231.000000pt" viewBox="0 0 648.000000 231.000000"
 preserveAspectRatio="xMidYMid meet">

<g transform="translate(0.000000,231.000000) scale(0.100000,-0.100000)"
fill="#000000" stroke="none">
<path d="M173 2276 c-63 -9 -88 -17 -108 -36 -34 -32 -46 -55 -39 -74 7 -18
86 -46 131 -46 32 0 43 12 23 25 -46 29 48 49 200 42 323 -13 626 -140 831
-346 100 -101 130 -155 136 -247 5 -65 3 -77 -23 -124 -43 -80 -122 -133 -242
-165 -77 -19 -204 -30 -263 -21 l-44 6 -4 167 -3 166 94 -5 c64 -3 108 -11
141 -26 52 -23 56 -31 27 -57 -39 -35 -27 -47 57 -60 39 -6 46 -4 73 23 56 56
35 133 -47 176 -17 8 -39 15 -49 15 -10 0 -50 9 -88 20 -38 11 -117 24 -175
28 -58 4 -91 9 -73 11 30 3 32 5 32 43 0 113 -43 183 -108 177 -32 -3 -37 -7
-45 -38 -5 -19 -12 -70 -15 -113 l-7 -80 -98 -23 c-149 -36 -247 -92 -247
-141 0 -28 43 -96 88 -140 53 -52 135 -109 210 -147 41 -21 52 -31 52 -51 0
-37 20 -73 44 -79 11 -3 40 -6 64 -6 33 0 48 6 66 25 24 26 68 33 95 16 11 -7
14 -68 19 -293 4 -251 3 -287 -12 -315 -34 -68 -101 -68 -161 -2 -34 38 -39
40 -75 34 -34 -6 -42 -12 -61 -53 -13 -25 -47 -89 -77 -142 -30 -52 -70 -126
-89 -164 l-35 -70 33 -28 c53 -43 158 -95 244 -120 67 -19 102 -23 215 -22
128 0 139 2 216 32 155 61 260 149 317 263 18 35 36 64 41 64 5 0 14 -18 21
-40 44 -148 153 -243 340 -297 67 -18 103 -22 220 -22 124 1 149 4 220 27 105
35 162 69 236 142 78 77 118 157 130 262 5 43 8 197 7 342 l-3 263 -155 -2
c-85 -1 -198 -3 -250 -4 l-95 -1 -5 -276 c-5 -296 -8 -309 -57 -309 -31 0 -58
15 -69 37 -5 10 -11 139 -14 288 l-5 269 -55 -4 c-71 -5 -420 -6 -442 -2 -14
3 -16 23 -17 148 l-2 143 34 50 c70 101 73 217 11 329 -44 79 -136 178 -234
252 -82 62 -359 202 -480 244 -210 71 -398 90 -597 62z m407 -786 c0 -81 -4
-120 -11 -120 -44 0 -229 134 -229 166 0 32 109 71 203 73 l37 1 0 -120z"/>
<path d="M1630 2176 c-84 -24 -158 -74 -185 -127 -19 -36 -19 -96 0 -132 8
-15 17 -44 21 -63 3 -19 15 -39 25 -44 21 -12 63 -13 73 -2 4 4 42 7 84 7 60
0 87 5 124 23 106 53 178 134 178 203 0 41 -19 63 -71 80 -19 7 -42 18 -51 26
-23 21 -87 42 -123 42 -16 -1 -50 -6 -75 -13z m230 -125 c0 -33 -44 -85 -95
-113 -54 -28 -145 -47 -145 -30 0 17 112 111 164 137 59 30 76 31 76 6z"/>
<path d="M2520 1787 c0 -13 13 -71 30 -130 37 -133 45 -180 32 -202 -8 -15
-19 -4 -71 73 -80 119 -130 172 -164 172 -37 0 -54 -38 -74 -160 -9 -55 -20
-100 -25 -100 -4 0 -8 7 -8 16 0 9 -15 31 -32 48 -38 38 -123 60 -268 71 -47
3 -89 10 -93 14 -19 19 68 43 191 52 148 11 181 18 196 43 26 42 -68 62 -248
53 -174 -8 -266 -52 -266 -126 0 -20 4 -41 8 -48 16 -25 89 -45 197 -53 136
-10 174 -17 200 -36 18 -14 19 -17 5 -42 -9 -15 -24 -28 -33 -30 -16 -3 -17
-1 -5 17 18 29 5 37 -82 55 -182 38 -275 8 -255 -83 12 -56 77 -95 186 -112
132 -20 241 9 280 75 27 47 39 45 39 -3 0 -23 7 -46 16 -55 17 -18 69 -21 79
-6 4 6 11 56 16 113 6 56 13 109 15 117 3 8 28 -21 65 -78 95 -144 142 -171
199 -114 65 65 65 194 0 338 -29 65 -93 144 -116 144 -8 0 -14 -10 -14 -23z
m-582 -367 c29 -11 71 -20 95 -21 l42 -1 -30 -13 c-45 -20 -191 -30 -210 -15
-20 17 -19 47 3 59 25 15 41 13 100 -9z"/>
<path d="M3876 1775 c-52 -18 -114 -80 -122 -122 -12 -63 60 -153 122 -153 29
0 29 -5 4 -55 -14 -27 -20 -59 -20 -101 0 -53 5 -68 33 -110 58 -87 159 -116
269 -78 90 30 154 129 146 226 l-3 42 42 7 c72 13 110 37 133 83 25 53 25 69
0 121 -38 79 -105 94 -197 45 -69 -37 -62 -30 -78 -76 l-13 -37 -85 -1 c-84
-1 -85 -1 -76 22 5 13 9 41 9 63 0 96 -77 154 -164 124z"/>
<path d="M2889 1730 c-140 -11 -176 -39 -104 -81 19 -12 35 -22 35 -23 0 -25
-29 -70 -52 -82 -21 -11 -27 -20 -23 -34 3 -10 -2 -48 -11 -84 -16 -62 -15
-69 1 -111 22 -59 59 -80 128 -71 53 6 156 50 197 84 l25 20 -20 22 c-21 24
-19 23 -167 4 l-48 -7 0 35 c0 57 15 68 108 75 45 3 85 10 88 15 3 5 3 20 0
34 -6 22 -11 24 -72 24 l-65 0 3 32 c4 38 22 46 115 47 113 2 144 33 82 85
-34 29 -43 29 -220 16z"/>
<path d="M3257 1683 c-87 -106 -113 -186 -96 -289 9 -55 8 -71 -15 -150 -14
-49 -31 -111 -39 -139 l-13 -50 -232 -3 -232 -2 2 -508 3 -507 50 1 c28 1 136
2 242 3 l192 1 3 248 c4 294 6 305 79 310 41 3 49 0 73 -28 l26 -32 0 -237 c0
-175 3 -241 13 -252 10 -12 52 -14 245 -11 l232 3 0 342 c0 370 -7 432 -53
523 -30 59 -76 104 -137 136 -40 20 -59 23 -165 23 -97 0 -126 -4 -153 -18
-19 -10 -36 -16 -39 -13 -3 3 7 52 23 108 l30 103 45 6 c104 15 211 96 260
194 28 58 31 72 26 125 -5 61 -31 111 -68 130 -34 19 -88 -17 -206 -136 -61
-62 -114 -110 -117 -107 -13 14 -4 48 30 116 20 40 40 77 44 82 5 6 11 27 15
48 11 55 -12 48 -68 -20z m287 -89 c30 -30 16 -116 -27 -162 -44 -47 -157 -89
-157 -58 0 29 145 236 165 236 2 0 11 -7 19 -16z"/>
<path d="M1576 1708 c-13 -63 -16 -105 -17 -234 -2 -171 6 -195 66 -205 77
-13 78 -11 72 194 -5 179 -14 243 -39 259 -7 4 -28 8 -45 8 -26 0 -34 -5 -37
-22z"/>
<path d="M6305 1069 c-49 -5 -110 -16 -133 -25 -32 -12 -47 -13 -55 -5 -8 8
-97 11 -284 11 l-273 0 0 -130 c0 -138 -8 -159 -42 -102 -56 93 -152 166 -281
214 -72 27 -99 31 -215 36 -140 5 -269 -9 -307 -34 -12 -8 -24 -11 -28 -8 -9
9 -48 -6 -42 -17 3 -5 0 -6 -8 -3 -25 9 -118 -46 -177 -105 -37 -36 -70 -83
-93 -131 -20 -41 -37 -70 -38 -65 -1 6 -3 87 -3 180 l-1 170 -253 3 -252 2 2
-507 3 -508 248 -3 247 -2 0 184 c0 102 4 187 9 190 5 3 16 -15 26 -39 58
-154 251 -300 449 -341 97 -20 290 -15 381 10 138 38 272 125 325 211 12 19
26 35 30 35 5 0 11 -50 12 -112 l3 -111 35 -13 c24 -9 110 -13 283 -13 l247
-1 0 209 c0 221 6 259 51 320 12 17 43 40 68 52 46 21 96 22 199 3 l32 -6 -2
228 -3 229 -35 1 c-19 1 -75 -2 -125 -7z m-1690 -89 c-3 -5 -11 -10 -16 -10
-6 0 -7 5 -4 10 3 6 11 10 16 10 6 0 7 -4 4 -10z m-40 -30 c-3 -5 -10 -10 -16
-10 -5 0 -9 5 -9 10 0 6 7 10 16 10 8 0 12 -4 9 -10z m-558 -256 c15 -24 15
-29 2 -53 -27 -49 -99 -35 -99 19 0 59 65 82 97 34z m207 13 c21 -16 24 -60 6
-82 -21 -25 -72 -15 -89 16 -29 53 34 102 83 66z m784 -30 c83 -88 55 -226
-52 -255 -55 -16 -83 -1 -108 54 -35 80 -9 159 66 205 41 25 68 24 94 -4z"/>
</g>
</svg>
